<svg id="Layer_1" data-name="Layer 1" xmlns="http://www.w3.org/2000/svg" viewBox="0 0 95.16 34.25"><defs><style>.cls-1{fill:#2c1b81;}.cls-2{fill:#2e1d83;}.cls-3{fill:#2d1c82;}</style></defs><title>For Tayo Blue</title><path id="rnd1" class="cls-1" d="M51.09,20.92c1.18-.1,1.74-.68,1.74-1.22s-.53-1.11-1.74-1.21a1.81,1.81,0,0,0-.91-1.66,1.82,1.82,0,0,0,.21-1.89c1.06-.55,1.32-1.29,1.12-1.74s-.91-.83-2-.47c-.46-.87-1-1.21-1.51-1.18a1.8,1.8,0,0,0-.51-1.85c.76-.87.72-1.74.36-2.08s-1.16-.41-2.08.37a1.72,1.72,0,0,0-1.82-.53c0-.46-.32-1-1.19-1.49.37-1.14,0-1.84-.46-2S41,4,40.51,5a1.74,1.74,0,0,0-1.94.18,1.81,1.81,0,0,0-1.68-.94c-.11-1.19-.68-1.74-1.22-1.74s-1.11.53-1.22,1.74a1.89,1.89,0,0,0-1.66.87,1.82,1.82,0,0,0-1.89-.21c-.55-1.05-1.28-1.34-1.78-1.12s-.83.92-.47,2.05c-.87.46-1.21,1-1.18,1.51a1.8,1.8,0,0,0-1.85.51c-.87-.76-1.74-.72-2.08-.36s-.4,1.16.37,2.08a1.74,1.74,0,0,0-.53,1.82c-.47,0-1,.32-1.49,1.19-1.14-.37-1.85,0-2.05.47s.06,1.23,1.12,1.74a1.73,1.73,0,0,0,.21,2,1.74,1.74,0,0,0-.93,1.66c-1.2.12-1.74.7-1.74,1.24s.53,1.12,1.74,1.22a1.83,1.83,0,0,0,.93,1.65A1.81,1.81,0,0,0,21,24.45c-1.06.55-1.34,1.29-1.12,1.74s.91.83,2.05.47c.45.87,1,1.21,1.51,1.19a1.79,1.79,0,0,0,.51,1.84c-.77.87-.72,1.74-.37,2.08s1.17.41,2.08-.37a1.78,1.78,0,0,0,1.83.53c0,.47.32,1,1.18,1.49-.36,1.14,0,1.85.47,2s1.24-.06,1.74-1.12a1.76,1.76,0,0,0,1.9-.22c.15.44.69.87,1.66.93.12,1.2.7,1.74,1.23,1.74s1.12-.53,1.22-1.74a1.83,1.83,0,0,0,1.72-.85,1.76,1.76,0,0,0,1.88.21c.56,1.06,1.3,1.32,1.79,1.12s.82-.91.47-2c.87-.45,1.21-1,1.18-1.5a1.77,1.77,0,0,0,1.84-.52c.87.77,1.74.73,2.08.37s.41-1.17-.36-2.08A1.8,1.8,0,0,0,48,27.93c.47,0,1-.32,1.48-1.18,1.14.37,1.86,0,2.06-.47s-.06-1.23-1.12-1.74a1.76,1.76,0,0,0-.23-1.9c.44-.15.87-.68.93-1.66M50,21.85a3.17,3.17,0,0,0,.15-.87A1.69,1.69,0,0,0,51,20.7a1.19,1.19,0,0,1-1,1.1Zm-.68,2.73c.8.4,1,.91.87,1.25a.65.65,0,0,1-.37.32,1.78,1.78,0,0,1-1.16-.1h0a1.33,1.33,0,0,1-1,.87,1.3,1.3,0,0,1-.25-1.34h0c-1-.5-1.36-1.07-1.22-1.4s.76-.5,1.85-.12h0a1.31,1.31,0,0,1,1.14-.81,1.33,1.33,0,0,1,.1,1.28v0Zm-2.86,4.78h0c.59.68.59,1.23.33,1.49a.56.56,0,0,1-.46.16,1.68,1.68,0,0,1-1-.48h0a1.36,1.36,0,0,1-1.22.4,1.29,1.29,0,0,1,.22-1.41h0c-.77-.87-.87-1.49-.6-1.73s.87-.17,1.74.59h0a1.28,1.28,0,0,1,1.33-.28,1.31,1.31,0,0,1-.39,1.21ZM42,32.7h0c.28.87.07,1.37-.27,1.5a.6.6,0,0,1-.49,0,1.66,1.66,0,0,1-.76-.87h0a1.33,1.33,0,0,1-1.28-.09,1.29,1.29,0,0,1,.72-1.11h0c-.38-1.08-.21-1.74.12-1.84s.87.19,1.38,1.23h0a1.28,1.28,0,0,1,1.33.25c0,.31-.26.69-.81,1Zm-5.45,1.42h0c-.06.87-.46,1.28-.81,1.28a.61.61,0,0,1-.45-.2,1.74,1.74,0,0,1-.38-1.09h0a1.37,1.37,0,0,1-1.15-.58,1.29,1.29,0,0,1,1.15-.75h0c.06-1.15.46-1.66.82-1.66s.75.52.81,1.66h0a1.31,1.31,0,0,1,1.14.75,1.34,1.34,0,0,1-1.14.58ZM24.44,19.71A11.22,11.22,0,1,1,35.67,30.93h0A11.23,11.23,0,0,1,24.44,19.71Zm7,12.42a1.3,1.3,0,0,1,.77,1.13,1.35,1.35,0,0,1-1.28.09h0c-.4.8-.91,1-1.25.87a.57.57,0,0,1-.32-.36,1.72,1.72,0,0,1,.06-1.14h0a1.33,1.33,0,0,1-.87-1,1.3,1.3,0,0,1,1.33-.26h0c.5-1,1.06-1.36,1.39-1.22s.5.76.12,1.84h0Zm-1.88-.87a2.21,2.21,0,0,0-1.6,0v-.09a2.25,2.25,0,0,0-.62-1.39A2.28,2.28,0,0,0,28,28.39a1.12,1.12,0,0,0-.09-.44A11.1,11.1,0,0,0,31,30.07c-.46,0-1,.34-1.47,1.19Zm-3.47-.72h0c-.68.59-1.24.59-1.49.33a.61.61,0,0,1-.16-.48,1.75,1.75,0,0,1,.49-1h0a1.3,1.3,0,0,1-.4-1.22,1.28,1.28,0,0,1,1.33.28h0c.87-.77,1.5-.87,1.74-.59s.16.87-.59,1.74h0a1.3,1.3,0,0,1,.26,1.31,1.25,1.25,0,0,1-1.21-.38Zm-4.95-4.79a.6.6,0,0,1,0-.49A1.75,1.75,0,0,1,22,24.5h0a1.33,1.33,0,0,1,.09-1.28,1.29,1.29,0,0,1,1.13.76h0c1.09-.38,1.74-.2,1.85.13s-.19.87-1.21,1.36h0a1.31,1.31,0,0,1-.25,1.34,1.33,1.33,0,0,1-1-.87h0c-.87.31-1.38.1-1.52-.24Zm-1.2-6a.62.62,0,0,1,.21-.44,1.75,1.75,0,0,1,1.09-.39h0a1.3,1.3,0,0,1,.58-1.14,1.28,1.28,0,0,1,.75,1.14h0c1.15.06,1.66.46,1.66.82s-.51.76-1.66.82h0a1.31,1.31,0,0,1-.73,1.15,1.32,1.32,0,0,1-.58-1.15h0c-.87-.06-1.29-.45-1.29-.82ZM22,14.93c-.8-.4-1-.91-.87-1.25a.56.56,0,0,1,.37-.32,1.69,1.69,0,0,1,1.13.06h0a1.33,1.33,0,0,1,1-.87,1.28,1.28,0,0,1,.24,1.32h0c1,.49,1.36,1.06,1.22,1.39s-.77.5-1.85.12h0a1.28,1.28,0,0,1-1.12.78A1.34,1.34,0,0,1,22,15h0Zm2.86-4.81h0c-.58-.68-.58-1.24-.33-1.49a.6.6,0,0,1,.48-.16,1.74,1.74,0,0,1,1,.48h0a1.34,1.34,0,0,1,1.21-.4A1.28,1.28,0,0,1,27,9.88h0c.77.87.87,1.51.6,1.74s-.87.18-1.74-.59h0a1.28,1.28,0,0,1-1.33.28,1.23,1.23,0,0,1,.38-1.2Zm4.5-3.41h0c-.28-.87-.07-1.37.27-1.5a.57.57,0,0,1,.48,0,1.74,1.74,0,0,1,.77.86h0a1.36,1.36,0,0,1,1.28.1,1.28,1.28,0,0,1-.77,1.12h0c.39,1.09.21,1.74-.12,1.85S30.44,9,29.93,7.92h0a1.29,1.29,0,0,1-1.34-.25c0-.33.26-.69.82-1Zm.21,1.44a2.15,2.15,0,0,0,1,1.1,1.12,1.12,0,0,0,.44.09,11.4,11.4,0,0,0-3.21,2.16,1.75,1.75,0,0,0-.51-1.84A2.08,2.08,0,0,0,28,8.15l.1.06a2.36,2.36,0,0,0,1.53,0ZM24.26,12a2.28,2.28,0,0,0,1.39-.62A2.15,2.15,0,0,0,27,12a1,1,0,0,0,.45-.1,11.5,11.5,0,0,0-2.14,3.2c0-.47-.32-1.05-1.18-1.49a2.14,2.14,0,0,0,0-1.61Zm-2.08,5a2.18,2.18,0,0,0,1.05-1.09,2.21,2.21,0,0,0,1.52,0,1,1,0,0,0,.33-.24,11.27,11.27,0,0,0-.74,3.76,1.74,1.74,0,0,0-1.67-.91A2.15,2.15,0,0,0,22,17Zm0,5.39a2.28,2.28,0,0,0,.55-1.42,2.16,2.16,0,0,0,1.41-.54,1.15,1.15,0,0,0,.25-.37,11.39,11.39,0,0,0,.72,3.74,1.8,1.8,0,0,0-1.88-.21A2.11,2.11,0,0,0,22,22.41Zm2,3.48a2.2,2.2,0,0,0,1.11-1,1.26,1.26,0,0,0,.08-.43,11.33,11.33,0,0,0,2.12,3.18,1.75,1.75,0,0,0-1.8.53,2.1,2.1,0,0,0-1.5-.6.15.15,0,0,1,.05-.11,2.27,2.27,0,0,0-.05-1.52ZM34.81,5.29h0c.07-.87.46-1.29.82-1.29a.62.62,0,0,1,.45.21,1.74,1.74,0,0,1,.38,1.09h0a1.35,1.35,0,0,1,1.24.58,1.3,1.3,0,0,1-1.15.75h0c-.06,1.15-.46,1.67-.82,1.67s-.76-.51-.82-1.66h0a1.28,1.28,0,0,1-1.14-.77A1.31,1.31,0,0,1,34.81,5.29Zm5.09,2a1.3,1.3,0,0,1-.78-1.12A1.33,1.33,0,0,1,40.4,6h0c.4-.8.91-1,1.25-.87a.61.61,0,0,1,.33.37,1.79,1.79,0,0,1-.07,1.14h0a1.32,1.32,0,0,1,.87,1,1.29,1.29,0,0,1-1.34.25h0c-.5,1-1.06,1.36-1.39,1.22s-.5-.77-.12-1.85h0Zm1.88.87a2.11,2.11,0,0,0,1.6,0v.1A2.28,2.28,0,0,0,44,9.65,2.28,2.28,0,0,0,43.38,11a1.18,1.18,0,0,0,.1.45,11.32,11.32,0,0,0-3.17-2.13c.46,0,1-.32,1.47-1.18Zm3.47.72h0c.68-.58,1.24-.59,1.49-.33a.6.6,0,0,1,.17.49,1.81,1.81,0,0,1-.49,1h0a1.32,1.32,0,0,1,.4,1.22,1.31,1.31,0,0,1-1.3-.21h0c-.87.76-1.49.87-1.74.59s-.16-.87.6-1.74h0A1.28,1.28,0,0,1,44.1,8.6,1.24,1.24,0,0,1,45.32,9Zm5,4.81a.57.57,0,0,1,0,.48,1.72,1.72,0,0,1-.87.77h0a1.33,1.33,0,0,1-.09,1.28,1.27,1.27,0,0,1-1.13-.78h0c-1.09.39-1.74.21-1.85-.12s.19-.87,1.21-1.36h0a1.29,1.29,0,0,1,.25-1.34,1.33,1.33,0,0,1,1,.87h0c.87-.3,1.38-.09,1.51.24Zm1.2,6a.62.62,0,0,1-.21.44,1.74,1.74,0,0,1-1.09.38h0a1.34,1.34,0,0,1-.61,1.18,1.3,1.3,0,0,1-.75-1.15h0c-1.15-.06-1.67-.46-1.67-.82s.52-.76,1.66-.82h0a1.32,1.32,0,0,1,.76-1.14,1.32,1.32,0,0,1,.58,1.15h0c.87,0,1.29.45,1.29.81Zm-2.2-2.61a2.21,2.21,0,0,0-.54,1.41,2.16,2.16,0,0,0-1.42.54,1.31,1.31,0,0,0-.24.37,11.27,11.27,0,0,0-.72-3.72,1.83,1.83,0,0,0,1.88.2A2.19,2.19,0,0,0,49.28,17Zm-2-3.48a2.19,2.19,0,0,0-1.08,1,1.07,1.07,0,0,0-.09.43,11.45,11.45,0,0,0-2.14-3.19,1.77,1.77,0,0,0,1.83-.52,2.09,2.09,0,0,0,1.51.61l0,.11a2.21,2.21,0,0,0,0,1.52ZM41.75,31.26a2.19,2.19,0,0,0-1-1.08,1,1,0,0,0-.41-.09A11.19,11.19,0,0,0,43.45,28a1.84,1.84,0,0,0,.53,1.8,2.1,2.1,0,0,0-.6,1.5l-.11-.05a2.3,2.3,0,0,0-1.51,0Zm5.35-3.82a2.26,2.26,0,0,0-1.39.61,2.21,2.21,0,0,0-1.39-.61,1.22,1.22,0,0,0-.43.08A11.24,11.24,0,0,0,46,24.31c0,.46.34,1,1.19,1.46a2.14,2.14,0,0,0,0,1.61Zm2.08-5a2.23,2.23,0,0,0-1,1.05,2.21,2.21,0,0,0-1.52,0,1,1,0,0,0-.36.24A11.39,11.39,0,0,0,47,20a1.79,1.79,0,0,0,1.65.87,2.15,2.15,0,0,0,.66,1.51Zm3.48-2.75a.59.59,0,0,1-.27.44,2.64,2.64,0,0,1-1.31.37,1.09,1.09,0,0,0,.1-1.53l-.1-.1c1.09.09,1.59.47,1.59.83Zm-1.74-.92a1.8,1.8,0,0,0-.87-.29,4.28,4.28,0,0,0-.15-.87,1.19,1.19,0,0,1,1,1.13Zm-1.22-2.7a4.34,4.34,0,0,0-.18-.87,1.76,1.76,0,0,0,.65-.59,1.22,1.22,0,0,1-.47,1.42Zm1.74-2.93a.55.55,0,0,1-.09.51,2.51,2.51,0,0,1-1.09.87,1.07,1.07,0,0,0-.49-1.45l-.13,0c1.06-.34,1.65-.18,1.79.15Zm-2-.19a1.61,1.61,0,0,0-.87,0,3.52,3.52,0,0,0-.46-.7,1.22,1.22,0,0,1,1.35.7Zm-2.2-2a3.77,3.77,0,0,0-.48-.7,1.73,1.73,0,0,0,.37-.8A1.21,1.21,0,0,1,47.26,11Zm.45-3.36a.57.57,0,0,1,.12.5,2.6,2.6,0,0,1-.66,1.19,1.09,1.09,0,0,0-1-1.14H46c.87-.73,1.44-.8,1.74-.55Zm-1.86.55a1.72,1.72,0,0,0-.8.39,4.19,4.19,0,0,0-.7-.49,1.22,1.22,0,0,1,1.49.11Zm-2.79-1a3.35,3.35,0,0,0-.72-.45,1.71,1.71,0,0,0,0-.87,1.19,1.19,0,0,1,.68,1.34ZM42.19,4a.57.57,0,0,1,.3.42,2.6,2.6,0,0,1-.15,1.35,1.14,1.14,0,0,0-.62-.67,1.19,1.19,0,0,0-.87,0c.49-1,1-1.27,1.36-1.13Zm-1.51,1.2a1.76,1.76,0,0,0-.59.65,4,4,0,0,0-.83-.19A1.22,1.22,0,0,1,40.68,5.17ZM38.37,6v.11a2.29,2.29,0,0,0,1.09,1.06,2.21,2.21,0,0,0,0,1.52,1.16,1.16,0,0,0,.25.36A11.45,11.45,0,0,0,36,8.37a1.73,1.73,0,0,0,.92-1.66A2.05,2.05,0,0,0,38.37,6Zm-.67-.68a4.4,4.4,0,0,0-.87-.15,1.8,1.8,0,0,0-.29-.87A1.22,1.22,0,0,1,37.7,5.36Zm-2-2.69a.59.59,0,0,1,.44.27,2.64,2.64,0,0,1,.37,1.31,1.09,1.09,0,0,0-1.53-.1l-.1.1C34.93,3.16,35.31,2.67,35.66,2.67Zm-.92,1.74a1.8,1.8,0,0,0-.29.87,4.28,4.28,0,0,0-.87.15,1.2,1.2,0,0,1,1.16-1ZM33,6.15l.07.07a2.17,2.17,0,0,0,1.42.55A2.24,2.24,0,0,0,35,8.19a1.14,1.14,0,0,0,.39.25,11.26,11.26,0,0,0-3.81.69,1.8,1.8,0,0,0,.21-1.89A2.15,2.15,0,0,0,33,6.1Zm-.87-.43a3.65,3.65,0,0,0-.87.19,1.79,1.79,0,0,0-.59-.74,1.22,1.22,0,0,1,1.42.47ZM29.21,4a.53.53,0,0,1,.51.09,2.63,2.63,0,0,1,.87,1.08,1.09,1.09,0,0,0-1.45.49l-.14.1c-.33-1-.17-1.64.15-1.78ZM29,5.9a1.61,1.61,0,0,0,0,.87,3.35,3.35,0,0,0-.72.45A1.2,1.2,0,0,1,29,5.9ZM27,8.11a3.75,3.75,0,0,0-.69.49,1.84,1.84,0,0,0-.76-.39A1.22,1.22,0,0,1,27,8.1Zm-3.36-.44a.59.59,0,0,1,.51-.12,2.6,2.6,0,0,1,1.19.66,1.1,1.1,0,0,0-1.15,1v.12c-.72-.87-.8-1.44-.55-1.74Zm.57,1.85a1.82,1.82,0,0,0,.36.8,3.77,3.77,0,0,0-.48.7A1.22,1.22,0,0,1,24.18,9.52Zm-1,2.78a4.54,4.54,0,0,0-.45.72,1.83,1.83,0,0,0-.87,0A1.21,1.21,0,0,1,23.21,12.3Zm-3.28.87a.58.58,0,0,1,.43-.3,2.59,2.59,0,0,1,1.35.15A1.09,1.09,0,0,0,21,14.4l.05.13c-1-.49-1.29-1-1.16-1.36Zm1.24,1.52a1.76,1.76,0,0,0,.65.59,3.76,3.76,0,0,0-.19.82A1.2,1.2,0,0,1,21.17,14.69Zm.16,3a3.31,3.31,0,0,0-.15.87,1.8,1.8,0,0,0-.87.29,1.2,1.2,0,0,1,1-1.12ZM18.64,19.7a.57.57,0,0,1,.28-.45,2.57,2.57,0,0,1,1.3-.36,1.08,1.08,0,0,0-.09,1.53l.09.09c-1.1-.07-1.59-.45-1.59-.81Zm1.74.92a1.8,1.8,0,0,0,.87.29,3.17,3.17,0,0,0,.15.86,1.19,1.19,0,0,1-1-1.12Zm1.28,2.65a3.21,3.21,0,0,0,.18.87,1.85,1.85,0,0,0-.66.58,1.19,1.19,0,0,1,.47-1.41ZM19.92,26.2a.55.55,0,0,1,.08-.51,2.72,2.72,0,0,1,1.09-.87,1.09,1.09,0,0,0,.49,1.45l.12.05c-1,.34-1.64.18-1.74-.14Zm1.94.2a1.61,1.61,0,0,0,.87,0,3.43,3.43,0,0,0,.47.72,1.2,1.2,0,0,1-1.35-.69Zm2.21,2a4.06,4.06,0,0,0,.48.69,1.71,1.71,0,0,0-.36.8,1.19,1.19,0,0,1-.13-1.49Zm-.46,3.35a.57.57,0,0,1-.12-.5,2.6,2.6,0,0,1,.66-1.19,1.09,1.09,0,0,0,1,1.14h.14c-.83.73-1.44.81-1.69.55Zm1.91-.55a1.76,1.76,0,0,0,.8-.39,4.12,4.12,0,0,0,.69.49A1.2,1.2,0,0,1,25.52,31.19Zm2.74.94a3.83,3.83,0,0,0,.72.46,1.71,1.71,0,0,0,0,.87,1.21,1.21,0,0,1-.67-1.33Zm.87,3.27a.57.57,0,0,1-.31-.41A2.69,2.69,0,0,1,29,33.67a1.08,1.08,0,0,0,1.37.67l.13-.05c-.48,1-1,1.28-1.35,1.15Zm1.51-1.22a1.68,1.68,0,0,0,.59-.65,4.75,4.75,0,0,0,.83.19,1.22,1.22,0,0,1-1.41.47ZM33,33.31V33.2a2.24,2.24,0,0,0-1.14-1.07,2.1,2.1,0,0,0,0-1.52,1.05,1.05,0,0,0-.23-.36A11.2,11.2,0,0,0,35.3,31a1.81,1.81,0,0,0-.87,1.66,2.09,2.09,0,0,0-1.49.63Zm.66.72a4.17,4.17,0,0,0,.87.15,1.69,1.69,0,0,0,.28.87,1.2,1.2,0,0,1-1.14-1Zm2.05,2.69a.57.57,0,0,1-.44-.27,2.64,2.64,0,0,1-.37-1.31,1.09,1.09,0,0,0,1.53.1l.1-.1c-.1,1.09-.48,1.58-.87,1.58ZM36.59,35a1.8,1.8,0,0,0,.29-.87,4.28,4.28,0,0,0,.87-.15,1.19,1.19,0,0,1-1.14,1Zm1.74-1.74-.07-.07a2.22,2.22,0,0,0-1.42-.55,2.27,2.27,0,0,0-.5-1.36A1.1,1.1,0,0,0,36,31a11.48,11.48,0,0,0,3.71-.72,1.81,1.81,0,0,0-.19,1.87,2.17,2.17,0,0,0-1.12,1.13Zm.87.43a3.65,3.65,0,0,0,.87-.19,1.68,1.68,0,0,0,.59.65,1.19,1.19,0,0,1-1.42-.46Zm2.93,1.74a.55.55,0,0,1-.51-.08,2.72,2.72,0,0,1-.87-1.09,1.08,1.08,0,0,0,1.45-.5l0-.13c.34,1.06.18,1.66-.14,1.79Zm.2-1.94a1.61,1.61,0,0,0,0-.87,3.35,3.35,0,0,0,.72-.45,1.2,1.2,0,0,1-.69,1.33Zm2-2.21a3.63,3.63,0,0,0,.7-.48,1.8,1.8,0,0,0,.8.38,1.21,1.21,0,0,1-1.49.11Zm3.36.45a.59.59,0,0,1-.51.12A2.6,2.6,0,0,1,46,31.17a1.09,1.09,0,0,0,1.15-1V30c.71.87.79,1.44.54,1.74Zm-.56-1.87a1.8,1.8,0,0,0-.38-.8,4.19,4.19,0,0,0,.49-.7,1.22,1.22,0,0,1-.12,1.49Zm1-2.73a4.27,4.27,0,0,0,.46-.73,1.71,1.71,0,0,0,.87.05,1.22,1.22,0,0,1-1.34.68Zm3.27-.87a.56.56,0,0,1-.41.3,2.54,2.54,0,0,1-1.34-.16A1.09,1.09,0,0,0,50.33,25l-.06-.13c1,.49,1.28,1,1.14,1.36Zm-1.22-1.52a1.84,1.84,0,0,0-.65-.59,4.22,4.22,0,0,0,.19-.87,1.22,1.22,0,0,1,.47,1.42Z" transform="translate(-18.5 -2.54)"/><path class="cls-1" d="M29.19,15.6a10.32,10.32,0,0,1,2-.17,3.28,3.28,0,0,1,2.34.66,2,2,0,0,1,.64,1.53,2.12,2.12,0,0,1-1.52,2.06h0a2,2,0,0,1,1.19,1.63,13.05,13.05,0,0,0,.62,2.22H33.37a10.62,10.62,0,0,1-.54-1.93c-.24-1.11-.67-1.53-1.62-1.57h-1v3.5h-1Zm1,3.68H31.3c1.11,0,1.82-.61,1.82-1.53s-.76-1.5-1.86-1.51a4.19,4.19,0,0,0-1,.1Z" transform="translate(-18.5 -2.54)"/><path class="cls-1" d="M36.68,15.5v3.38h3.91V15.5h1v8.08h-1V19.79H36.68v3.79h-1V15.5Z" transform="translate(-18.5 -2.54)"/><path class="cls-2" d="M63.52,17.12l-1.88-2.71H59.57v2.71H57.32V7.39h4.21c2.6,0,4.23,1.35,4.23,3.53a3.18,3.18,0,0,1-2,3.07l2.18,3.13Zm-2.11-7.9H59.57v3.39h1.84c1.38,0,2.07-.64,2.07-1.7S62.79,9.22,61.41,9.22Z" transform="translate(-18.5 -2.54)"/><path class="cls-2" d="M74.67,14H69a2,2,0,0,0,2.14,1.5A2.53,2.53,0,0,0,73,14.77L74.19,16a3.93,3.93,0,0,1-3.09,1.21c-2.59,0-4.27-1.63-4.27-3.85a3.81,3.81,0,0,1,3.76-3.85h.24A3.7,3.7,0,0,1,74.72,13a2.41,2.41,0,0,1,0,.38C74.72,13.57,74.69,13.81,74.67,14ZM69,12.73h3.69a1.87,1.87,0,0,0-3.69,0Z" transform="translate(-18.5 -2.54)"/><path class="cls-2" d="M84.31,13.38a3.63,3.63,0,0,1-3.4,3.84h-.33a2.91,2.91,0,0,1-2.25-.9v3.49H76.16V9.64h2.07v.86a2.89,2.89,0,0,1,2.35-1A3.64,3.64,0,0,1,84.32,13C84.32,13.14,84.32,13.26,84.31,13.38Zm-2.2,0a1.91,1.91,0,0,0-3.81-.28,1.31,1.31,0,0,0,0,.28,1.91,1.91,0,0,0,3.81.28A1.31,1.31,0,0,0,82.11,13.38Z" transform="translate(-18.5 -2.54)"/><path class="cls-2" d="M85.2,13.38a4.12,4.12,0,1,1,4.38,3.84h-.26a3.85,3.85,0,0,1-4.11-3.57A2.62,2.62,0,0,1,85.2,13.38Zm6,0A1.92,1.92,0,1,0,87.38,13a2.54,2.54,0,0,0,0,.39,1.92,1.92,0,1,0,3.82.39A2.54,2.54,0,0,0,91.2,13.38Z" transform="translate(-18.5 -2.54)"/><path class="cls-3" d="M99.5,9.53v2H99a1.84,1.84,0,0,0-2,1.65,2.14,2.14,0,0,0,0,.44v3.53H94.86V9.64h2.07v1A3,3,0,0,1,99.5,9.53Z" transform="translate(-18.5 -2.54)"/><path class="cls-2" d="M105.82,16.76a3.08,3.08,0,0,1-1.77.47,2.47,2.47,0,0,1-2.79-2.11,2.72,2.72,0,0,1,0-.57V11.47H100.1V9.81h1.15V8h2.17V9.81h1.86v1.67h-1.86v3a.87.87,0,0,0,.73,1,.66.66,0,0,0,.2,0,1.46,1.46,0,0,0,.88-.28Z" transform="translate(-18.5 -2.54)"/><path class="cls-2" d="M113.66,12.85v4.27h-2v-.93a2.47,2.47,0,0,1-2.28,1c-1.75,0-2.8-1-2.8-2.27s.93-2.24,3.21-2.24h1.72c0-.93-.56-1.47-1.72-1.47a3.58,3.58,0,0,0-2.16.7l-.78-1.52a5.76,5.76,0,0,1,3.23-.9C112.34,9.53,113.66,10.58,113.66,12.85Zm-2.17,1.91V14H110c-1,0-1.33.38-1.33.88s.46.9,1.22.9A1.6,1.6,0,0,0,111.49,14.76Z" transform="translate(-18.5 -2.54)"/><path class="cls-3" d="M65.89,22v9.73h-1V27.19H58.78v4.49h-1V22h1v4.34h6.09V22Z" transform="translate(-18.5 -2.54)"/><path class="cls-3" d="M75.49,28.33H69.38a2.72,2.72,0,0,0,2.87,2.54h0a2.87,2.87,0,0,0,2.24-1l.56.64A3.87,3.87,0,0,1,68.39,28a3.52,3.52,0,0,1,3.36-3.68H72a3.5,3.5,0,0,1,3.52,3.46c0,.08,0,.15,0,.22S75.49,28.22,75.49,28.33Zm-6.12-.74h5.19a2.6,2.6,0,0,0-5.19,0Z" transform="translate(-18.5 -2.54)"/><path class="cls-3" d="M83.18,27.15v4.53h-1V30.54a2.75,2.75,0,0,1-2.52,1.21c-1.65,0-2.67-.86-2.67-2.13s.72-2.07,2.82-2.07H82.2v-.44c0-1.25-.71-1.93-2.07-1.93A3.71,3.71,0,0,0,77.7,26l-.44-.74a4.64,4.64,0,0,1,3-1C82.11,24.32,83.18,25.26,83.18,27.15Zm-1,2.34v-1.2H79.9c-1.42,0-1.88.56-1.88,1.31S78.7,31,79.87,31a2.34,2.34,0,0,0,2.33-1.51Z" transform="translate(-18.5 -2.54)"/><path class="cls-3" d="M86.14,21.37h1V31.69h-1Z" transform="translate(-18.5 -2.54)"/><path class="cls-3" d="M94.15,31.24a2.33,2.33,0,0,1-1.54.51A1.94,1.94,0,0,1,90.47,30a2.81,2.81,0,0,1,0-.41V25.21H89.16v-.83h1.31v-1.6h1v1.6h2.22v.83H91.45v4.37a1.16,1.16,0,0,0,1,1.33.94.94,0,0,0,.29,0,1.64,1.64,0,0,0,1.08-.38Z" transform="translate(-18.5 -2.54)"/><path class="cls-3" d="M103,27.44v4.24h-1V27.54a2,2,0,0,0-1.62-2.32,1.88,1.88,0,0,0-.58,0,2.4,2.4,0,0,0-2.57,2.22,3,3,0,0,0,0,.42v3.84h-1V21.37h1v4.28A3.1,3.1,0,0,1,100,24.32a2.8,2.8,0,0,1,3,2.55A2.72,2.72,0,0,1,103,27.44Z" transform="translate(-18.5 -2.54)"/></svg>